<svg viewBox="0 0 16 16" fill="none" xmlns="http://www.w3.org/2000/svg">
    <path
        d="M7.06448 0.755875L6.93751 1.83494L7.95901 2.63575L8.70119 1.07231C8.13416 0.786625 7.59895 0.76875 7.06448 0.755875ZM5.21095 1.90916C4.4532 2.00072 3.86876 2.40594 3.3711 2.96578H3.37204L6.38476 4.92184L5.21095 1.90916ZM9.40235 2.77344L9.98535 5.44531L7.13873 4.69922L8.40626 7.31056L4.0127 4.51759C3.88876 4.66994 3.77207 4.82916 3.66207 4.99509C2.76226 6.35338 2.34795 8.15459 2.32129 9.89259C3.5751 10.5059 4.31638 11.147 4.63479 11.8164C4.92095 12.418 4.80588 13.037 4.43657 13.5117C5.22451 14.2424 6.58151 14.6877 7.97266 14.71C9.37307 14.7324 10.7843 14.3324 11.6797 13.498C11.4912 13.2812 11.3543 13.0497 11.2891 12.7968C11.2016 12.4578 11.2593 12.092 11.4512 11.7568C11.8186 11.1149 12.6276 10.5299 13.9531 9.89153C13.9256 8.24581 13.5202 6.44669 12.625 5.06638C11.8938 3.93872 10.8579 3.08475 9.40235 2.77341V2.77344ZM5.67485 8.04981C6.54204 8.04981 7.24516 8.75294 7.24516 9.62012C7.24516 10.4873 6.54204 11.1904 5.67485 11.1904C4.8076 11.1904 4.10454 10.4873 4.10454 9.62012C4.10454 8.75294 4.8076 8.04981 5.67485 8.04981ZM10.3457 8.04981C11.2129 8.04981 11.916 8.75294 11.916 9.62012C11.916 10.4873 11.2129 11.1904 10.3457 11.1904C9.47854 11.1904 8.77541 10.4873 8.77541 9.62012C8.77541 8.75294 9.47854 8.04981 10.3457 8.04981ZM8.00979 10.7412C8.43916 11.6476 8.78016 12.5544 8.94923 13.4609C8.48744 13.8639 7.65985 13.9223 7.07032 13.4609C7.29891 12.5544 7.57407 11.6476 8.00979 10.7412Z"
        fill="#CCCCCC" />
</svg>