<svg viewBox="0 0 16 17" fill="none" xmlns="http://www.w3.org/2000/svg">
    <g id="donjon">
        <path id="Vector"
            d="M4.69868 9.43733L7.05535 11.7947L6.11335 12.7373L7.05668 13.6807L6.11401 14.6233L4.46401 12.9733L2.57801 14.8593L1.63535 13.9167L3.52135 12.03L1.87135 10.3807L2.81401 9.438L3.75668 10.38L4.69868 9.43733ZM2.00001 2.5L4.36401 2.502L12.242 10.3807L13.1853 9.438L14.1287 10.3807L12.4787 12.0307L14.364 13.9167L13.4213 14.8593L11.5353 12.9733L9.88601 14.6233L8.94268 13.6807L9.88534 12.7373L2.00135 4.854L2.00001 2.5ZM11.638 2.5L14 2.502L14.0013 4.85067L11.2993 7.552L8.94201 5.19533L11.6373 2.5H11.638Z"
            fill="#CCCCCC" />
    </g>
</svg>