<svg viewBox="0 0 16 17" fill="none" xmlns="http://www.w3.org/2000/svg">
    <g id="guide">
        <path id="Vector"
            d="M13.3333 15.1666H4.33333C3.71449 15.1666 3.121 14.9208 2.68342 14.4832C2.24583 14.0456 2 13.4522 2 12.8333V3.83331C2 3.30288 2.21071 2.79417 2.58579 2.4191C2.96086 2.04403 3.46957 1.83331 4 1.83331H13.3333C13.5101 1.83331 13.6797 1.90355 13.8047 2.02858C13.9298 2.1536 14 2.32317 14 2.49998V14.5C14 14.6768 13.9298 14.8464 13.8047 14.9714C13.6797 15.0964 13.5101 15.1666 13.3333 15.1666ZM12.6667 13.8333V11.8333H4.33333C4.06812 11.8333 3.81376 11.9387 3.62623 12.1262C3.43869 12.3137 3.33333 12.5681 3.33333 12.8333C3.33333 13.0985 3.43869 13.3529 3.62623 13.5404C3.81376 13.728 4.06812 13.8333 4.33333 13.8333H12.6667Z"
            fill="#CCCCCC" />
    </g>
</svg>