<svg viewBox="0 0 16 17" fill="none" xmlns="http://www.w3.org/2000/svg">
    <g id="Stuff">
        <path id="Vector"
            d="M7.99999 7.16665L5.33332 3.43331L6.39999 1.83331H9.59999L10.6667 3.43331L7.99999 7.16665ZM10.3333 5.03331L9.53332 6.16665C11 6.76665 12 8.16665 12 9.83331C12 10.8942 11.5786 11.9116 10.8284 12.6617C10.0783 13.4119 9.06086 13.8333 7.99999 13.8333C6.93912 13.8333 5.92171 13.4119 5.17156 12.6617C4.42142 11.9116 3.99999 10.8942 3.99999 9.83331C3.99999 8.16665 4.99999 6.76665 6.46666 6.16665L5.66666 5.03331C3.86666 5.89998 2.66666 7.69998 2.66666 9.83331C2.66666 11.2478 3.22856 12.6044 4.22875 13.6045C5.22895 14.6047 6.5855 15.1666 7.99999 15.1666C9.41448 15.1666 10.771 14.6047 11.7712 13.6045C12.7714 12.6044 13.3333 11.2478 13.3333 9.83331C13.3333 7.69998 12.1333 5.89998 10.3333 5.03331Z"
            fill="#CCCCCC" />
    </g>
</svg>